<?xml version="1.0" standalone="no"?>
<!DOCTYPE svg PUBLIC "-//W3C//DTD SVG 20010904//EN"
 "http://www.w3.org/TR/2001/REC-SVG-20010904/DTD/svg10.dtd">
<svg version="1.0" xmlns="http://www.w3.org/2000/svg"
 width="686.000000pt" height="686.000000pt" viewBox="0 0 686.000000 686.000000"
 preserveAspectRatio="xMidYMid meet">

<g transform="translate(0.000000,686.000000) scale(0.100000,-0.100000)"
fill="#000000" stroke="none">
<path d="M3419 6085 c-3 -2 -81 -9 -174 -15 -94 -6 -206 -17 -250 -25 -114
-19 -318 -65 -330 -75 -5 -4 -46 -18 -90 -30 -44 -12 -82 -26 -85 -30 -3 -4
-30 -15 -60 -25 -30 -9 -65 -24 -77 -31 -12 -8 -46 -23 -75 -35 -29 -11 -55
-24 -58 -27 -3 -4 -29 -18 -57 -31 -29 -14 -53 -27 -53 -31 0 -4 -22 -17 -50
-30 -27 -13 -50 -26 -50 -30 0 -3 -15 -13 -32 -22 -18 -9 -42 -23 -53 -32 -11
-9 -49 -37 -85 -64 -253 -185 -544 -505 -682 -752 -80 -143 -100 -179 -113
-210 -9 -19 -27 -57 -40 -85 -13 -27 -29 -68 -36 -90 -6 -22 -15 -42 -19 -45
-3 -3 -17 -41 -30 -85 -12 -44 -27 -87 -32 -95 -10 -18 -55 -217 -73 -325 -11
-62 -38 -372 -38 -430 0 -64 27 -370 38 -431 21 -122 66 -318 75 -329 4 -5 18
-46 30 -90 12 -44 26 -82 30 -85 4 -3 13 -23 20 -45 21 -69 129 -291 174 -360
11 -18 29 -46 38 -61 153 -254 413 -538 658 -716 36 -26 71 -52 77 -58 7 -6
30 -20 50 -32 21 -13 43 -26 48 -31 16 -14 86 -54 145 -84 30 -15 57 -31 60
-35 3 -3 30 -16 60 -28 30 -12 60 -26 66 -31 6 -5 37 -18 69 -29 32 -11 63
-24 69 -29 6 -5 47 -19 91 -31 44 -12 85 -26 90 -30 12 -10 219 -57 335 -76
72 -12 362 -37 425 -37 63 0 353 25 425 37 116 19 323 66 335 76 6 4 46 18 90
30 44 12 85 26 91 31 6 5 37 18 69 29 32 11 63 24 69 29 6 5 36 19 66 31 30
12 57 25 60 28 3 4 30 20 60 35 59 30 129 70 145 84 6 5 27 18 48 31 20 12 43
26 50 32 6 6 41 32 77 58 235 171 504 460 646 695 16 26 39 63 50 81 43 67
155 296 169 346 4 14 13 34 20 45 7 12 23 57 35 100 12 44 26 85 30 90 9 11
54 207 75 329 12 66 38 364 38 431 0 67 -26 365 -38 431 -20 118 -63 307 -74
325 -5 8 -19 51 -31 94 -12 44 -28 88 -35 100 -7 11 -16 31 -20 45 -14 50
-126 279 -169 346 -11 18 -34 55 -50 81 -142 235 -411 524 -646 695 -36 26
-71 52 -77 58 -7 6 -30 20 -50 32 -21 13 -42 26 -48 31 -16 14 -86 54 -145 84
-30 15 -57 31 -60 35 -3 3 -30 16 -60 28 -30 12 -60 26 -66 31 -6 5 -37 18
-69 29 -32 11 -63 24 -69 29 -6 5 -47 19 -91 31 -44 12 -84 26 -90 30 -12 10
-216 56 -330 75 -44 8 -156 19 -249 25 -93 6 -172 13 -176 15 -4 3 -9 3 -11 0z
m-504 -1677 c55 -58 152 -161 215 -229 63 -68 155 -166 205 -217 l90 -93 65
68 c36 37 126 133 200 212 74 80 151 161 170 181 19 19 63 66 97 103 35 37 74
72 88 77 35 13 91 13 116 -1 36 -19 245 -242 268 -286 19 -37 14 -107 -11
-139 -18 -23 -190 -212 -268 -295 -8 -8 -49 -51 -90 -95 -41 -43 -110 -116
-152 -161 -43 -45 -78 -86 -78 -92 0 -6 19 -30 43 -54 23 -24 94 -100 157
-167 63 -68 154 -165 201 -214 206 -217 208 -220 209 -287 0 -58 -21 -88 -167
-240 l-109 -112 -58 -5 -58 -5 -101 105 c-56 58 -127 132 -157 166 -30 33
-115 124 -189 201 -74 78 -144 153 -155 166 l-21 23 -99 -106 c-55 -59 -138
-148 -185 -197 -47 -50 -135 -143 -196 -208 -60 -65 -122 -125 -137 -133 -32
-17 -88 -18 -120 -3 -27 14 -244 243 -264 279 -15 29 -18 98 -5 132 5 13 62
79 127 148 65 69 179 190 253 269 75 80 155 165 179 190 23 24 42 48 42 52 0
4 -40 50 -88 101 -525 553 -522 550 -522 623 0 42 5 59 29 88 49 62 221 241
244 255 13 7 44 11 77 9 l54 -4 101 -105z"/>
</g>
</svg>
